<?xml version="1.0" encoding="utf-8"?>
<!-- Generator: Adobe Illustrator 22.1.0, SVG Export Plug-In . SVG Version: 6.00 Build 0)  -->
<svg version="1.1" id="Layer_1" xmlns="http://www.w3.org/2000/svg" xmlns:xlink="http://www.w3.org/1999/xlink" x="0px" y="0px"
	 width="371.2px" height="144.1px" viewBox="0 0 371.2 144.1" style="enable-background:new 0 0 371.2 144.1;" xml:space="preserve"
	>
<style type="text/css">
	.st0{fill:#574319;}
	.st1{fill:#002F65;}
</style>
<g>
	<path class="st0" d="M369.4,30.5C354.6-2.3,254.6-9.8,146,13.7C86.4,26.6,30.4,49,0,69.5c0,0,0,1.6,0,1.8
		c27.9-16,68.6-31.2,115.8-41.4c98.8-21.4,189.7-14.6,203.1,15.3c13.4,29.8-55.8,71.3-154.6,92.7c-7.4,1.6-14.8,3.1-22.1,4.4
		l0.1,1.9c14.2-2,42.4-8.1,57.1-11.6C307.4,106.5,384.1,63.3,369.4,30.5z"/>
	<path class="st1" d="M127.2,45.9h2.4c0,0,2.3,0,1.6,1.8c-0.7,1.8-23.2,58-23.2,58l-0.1,0.1h30.8l24.5-61c1-2.5,0.6-5.7-1.6-7.8
		c-2.2-2-5.9-2.6-9.4-2.6l-10.8,0c-4.8,0-8,6.7-8,6.5c0-0.1-0.9-6.5-6.8-6.6l0,0l-23.1-0.1l0,0c-4.8,0.1-7.8,6.7-7.8,6.6
		c0-0.1-0.8-6.7-7-6.7l0,0.1v-0.1l-31.5,0l-28.7,71.5l33.5,0l23.8-59.8l3.8,0h2.4c0,0,2.3-0.1,1.6,1.7c-0.7,1.9-23.2,58-23.2,58
		l-0.2,0.1l29.6,0l23.8-59.9L127.2,45.9L127.2,45.9z"/>
	<path class="st1" d="M172.8,34.3l-28.7,71.4l-0.1,0.1l56.2-0.1c8.2-0.3,15.2-4.1,17.1-9.8l6.8-17.2c1.7-4.4-0.9-9.1-6.3-11.5
		c7.5-1.4,13.3-5.6,15.3-10.9l4.6-11.5c1-2.4,0.3-5.1-1.9-7.1c-2.2-2.1-5.5-3.3-9.1-3.3L172.8,34.3z M197.8,61h-6.2l6-15.2h6.2
		c0,0,2.3-0.1,1.6,1.8c-0.5,1.4-3.8,9.5-4.6,11.5C200,61.1,197.8,61,197.8,61z M195.5,72.5c-0.8,2-7,17.5-7.5,18.8
		c-0.6,1.6-2.6,1.7-2.6,1.7h-6.4l8.9-22.5h6.1C194,70.4,196.3,70.5,195.5,72.5z"/>
	<g>
		<path class="st1" d="M26.9,109.9l4.7,10.8l4.7-10.8l2.6,13.6h-1.5l-1.7-8.7h0l-4.1,9.2l-4.1-9.2h0l-1.6,8.7h-1.5L26.9,109.9z"/>
		<path class="st1" d="M47.2,119.8l-1.5,3.7h-1.6L50,110l5.8,13.5h-1.6l-1.5-3.7H47.2z M50,113.3l-2.2,5.1h4.3L50,113.3z"/>
		<path class="st1" d="M63.4,123.5H62v-12.8h1.9c2.4,0,4.7,0.7,4.7,3.5c0,2-1.2,3.4-3.2,3.5l4.1,5.8h-1.8l-3.9-5.6h-0.4V123.5z
			 M63.4,116.6h0.4c1.6,0,3.2-0.3,3.2-2.3c0-2.1-1.6-2.3-3.3-2.3h-0.4V116.6z"/>
		<path class="st1" d="M79.1,123.5h-1.4v-11.5h-3.1v-1.3h7.7v1.3h-3.1V123.5z"/>
		<path class="st1" d="M89.9,123.5h-1.4v-12.8h1.4V123.5z"/>
		<path class="st1" d="M97.4,110.1l10,10.5v-9.9h1.4V124l-10-10.5v9.9h-1.4C97.4,123.5,97.4,110.1,97.4,110.1z"/>
		<path class="st1" d="M116.3,123.5v-12.2h3.3c1.4,0,2.3,0,2.9,0.1c0.6,0.1,1,0.2,1.4,0.5c0.4,0.2,0.8,0.6,1,1
			c0.2,0.4,0.3,0.9,0.3,1.4c0,0.7-0.2,1.2-0.5,1.7s-0.9,0.7-1.7,0.9c0.9,0.1,1.5,0.4,2,0.9s0.7,1.3,0.7,2.2c0,0.7-0.1,1.2-0.4,1.7
			c-0.3,0.5-0.7,0.9-1.2,1.2c-0.4,0.2-0.9,0.4-1.5,0.5c-0.6,0.1-1.6,0.1-3,0.1L116.3,123.5L116.3,123.5z M119.3,116.2h0.7
			c0.8,0,1.4-0.1,1.7-0.3s0.5-0.5,0.5-0.9c0-0.5-0.1-0.8-0.4-1c-0.3-0.2-0.8-0.3-1.7-0.3h-0.7L119.3,116.2L119.3,116.2z M119.3,121
			h1.2c0.8,0,1.3-0.1,1.7-0.3c0.3-0.2,0.5-0.5,0.5-1c0-0.5-0.2-0.9-0.4-1.1c-0.3-0.2-0.8-0.3-1.7-0.3h-1.2V121z"/>
		<path class="st1" d="M132.6,123.5v-12.2h3.5c1.4,0,2.3,0.1,2.8,0.2c0.5,0.1,1,0.3,1.4,0.6c0.4,0.3,0.8,0.8,1,1.3
			c0.2,0.5,0.4,1.1,0.4,1.7c0,0.9-0.2,1.7-0.7,2.3c-0.5,0.6-1.1,1-2,1.2l3.3,4.9h-3.8l-2.8-4.8v4.8L132.6,123.5L132.6,123.5z
			 M135.7,117h0.6c0.7,0,1.2-0.1,1.6-0.4s0.5-0.6,0.5-1.2c0-0.6-0.1-1-0.5-1.3c-0.3-0.3-0.8-0.4-1.6-0.4h-0.7V117z"/>
		<path class="st1" d="M160.8,117.4c0,0.9-0.2,1.7-0.5,2.5c-0.3,0.8-0.8,1.4-1.4,2.1c-0.6,0.6-1.3,1.1-2.1,1.4
			c-0.8,0.3-1.6,0.5-2.5,0.5c-0.9,0-1.7-0.2-2.5-0.5c-0.8-0.3-1.5-0.8-2.1-1.4c-0.6-0.6-1.1-1.3-1.4-2.1c-0.3-0.8-0.5-1.6-0.5-2.4
			c0-0.9,0.2-1.7,0.5-2.5c0.3-0.8,0.8-1.5,1.4-2.1c0.6-0.6,1.3-1.1,2.1-1.4c0.8-0.3,1.6-0.5,2.5-0.5c0.9,0,1.7,0.2,2.5,0.5
			c0.8,0.3,1.5,0.8,2.1,1.4c0.6,0.6,1.1,1.3,1.4,2.1C160.6,115.7,160.8,116.5,160.8,117.4z M154.3,121c0.9,0,1.7-0.3,2.3-1
			c0.6-0.7,0.9-1.5,0.9-2.6c0-1-0.3-1.9-0.9-2.6c-0.6-0.7-1.4-1-2.3-1c-0.9,0-1.7,0.3-2.3,1s-0.9,1.5-0.9,2.6c0,1,0.3,1.9,0.9,2.6
			C152.6,120.6,153.3,121,154.3,121z"/>
		<path class="st1" d="M175.9,111.3l1.5,5.8c0.1,0.3,0.1,0.5,0.2,0.8c0.1,0.3,0.1,0.6,0.2,1c0.1-0.4,0.1-0.8,0.2-1.1
			c0.1-0.3,0.1-0.5,0.2-0.7l1.4-5.8h3.4l-3.4,12.2h-3.1l-1.5-5.2c-0.1-0.2-0.1-0.5-0.3-1.1c-0.1-0.2-0.1-0.4-0.1-0.6
			c0,0.1-0.1,0.3-0.1,0.5c-0.1,0.5-0.2,0.9-0.3,1.1l-1.5,5.2h-3.1l-3.4-12.2h3.4l1.4,5.8c0.1,0.3,0.1,0.6,0.2,0.9
			c0.1,0.3,0.1,0.6,0.2,0.9c0.1-0.2,0.1-0.5,0.2-0.7c0.1-0.3,0.1-0.6,0.3-1.1l1.5-5.8H175.9z"/>
		<path class="st1" d="M188.9,123.5v-12.2h7.5v2.7h-4.2v2.1h4v2.6h-4v2.1h4.2v2.7L188.9,123.5L188.9,123.5z"/>
		<path class="st1" d="M203.4,123.5v-12.2h3.5c1.4,0,2.3,0.1,2.8,0.2c0.5,0.1,1,0.3,1.4,0.6c0.4,0.3,0.8,0.8,1,1.3
			c0.2,0.5,0.4,1.1,0.4,1.7c0,0.9-0.2,1.7-0.7,2.3c-0.5,0.6-1.1,1-2,1.2l3.3,4.9h-3.8l-2.8-4.8v4.8L203.4,123.5L203.4,123.5z
			 M206.5,117h0.6c0.7,0,1.2-0.1,1.6-0.4s0.5-0.6,0.5-1.2c0-0.6-0.1-1-0.5-1.3c-0.3-0.3-0.8-0.4-1.6-0.4h-0.7V117z"/>
	</g>
</g>
</svg>
